<mxfile host="app.diagrams.net" agent="Mozilla/5.0 (Windows NT 10.0; Win64; x64) AppleWebKit/537.36 (KHTML, like Gecko) Chrome/130.0.0.0 Safari/537.36 Edg/130.0.0.0" version="24.8.3">
  <diagram name="Page-1" id="XcSlMam2IqQOkkW9MJc9">
    <mxGraphModel dx="1103" dy="1053" grid="0" gridSize="10" guides="1" tooltips="1" connect="1" arrows="1" fold="1" page="0" pageScale="1" pageWidth="850" pageHeight="1100" math="0" shadow="0">
      <root>
        <mxCell id="0" />
        <mxCell id="1" parent="0" />
        <mxCell id="2HC28eqQr_R8XedatQmQ-1" value="ACTIVITY DIAGRAM" style="swimlane;childLayout=stackLayout;resizeParent=1;resizeParentMax=0;startSize=20;html=1;swimlaneFillColor=#80F7FF;fillColor=#A8DADC;rounded=1;labelBackgroundColor=none;strokeColor=#457B9D;fontColor=#1D3557;" parent="1" vertex="1">
          <mxGeometry x="20.000000000000455" y="-35" width="1868" height="1687" as="geometry" />
        </mxCell>
        <mxCell id="2HC28eqQr_R8XedatQmQ-2" value="USER" style="swimlane;startSize=20;html=1;rounded=1;labelBackgroundColor=none;fillColor=#A8DADC;strokeColor=#457B9D;fontColor=#1D3557;" parent="2HC28eqQr_R8XedatQmQ-1" vertex="1">
          <mxGeometry y="20" width="273" height="1667" as="geometry" />
        </mxCell>
        <mxCell id="2HC28eqQr_R8XedatQmQ-9" value="" style="ellipse;html=1;shape=startState;fillColor=#A8DADC;strokeColor=#457B9D;rounded=1;labelBackgroundColor=none;fontColor=#1D3557;" parent="2HC28eqQr_R8XedatQmQ-2" vertex="1">
          <mxGeometry x="115.99999999999955" y="40" width="30" height="30" as="geometry" />
        </mxCell>
        <mxCell id="2HC28eqQr_R8XedatQmQ-10" value="" style="edgeStyle=orthogonalEdgeStyle;html=1;verticalAlign=bottom;endArrow=open;endSize=8;strokeColor=#457B9D;rounded=1;fontSize=12;curved=1;labelBackgroundColor=none;fontColor=default;strokeWidth=3;" parent="2HC28eqQr_R8XedatQmQ-2" source="2HC28eqQr_R8XedatQmQ-9" edge="1">
          <mxGeometry relative="1" as="geometry">
            <mxPoint x="130.99999999999955" y="106" as="targetPoint" />
          </mxGeometry>
        </mxCell>
        <mxCell id="2HC28eqQr_R8XedatQmQ-11" value="&lt;b&gt;Enter description for ticket&lt;/b&gt;" style="rounded=1;whiteSpace=wrap;html=1;arcSize=40;fontColor=#1D3557;fillColor=#A8DADC;strokeColor=#457B9D;labelBackgroundColor=none;" parent="2HC28eqQr_R8XedatQmQ-2" vertex="1">
          <mxGeometry x="70.99999999999955" y="109" width="120" height="40" as="geometry" />
        </mxCell>
        <mxCell id="2HC28eqQr_R8XedatQmQ-12" value="" style="edgeStyle=orthogonalEdgeStyle;html=1;verticalAlign=bottom;endArrow=open;endSize=8;strokeColor=#457B9D;rounded=1;fontSize=12;curved=1;entryX=0.5;entryY=0;entryDx=0;entryDy=0;labelBackgroundColor=none;fontColor=default;strokeWidth=3;" parent="2HC28eqQr_R8XedatQmQ-2" source="2HC28eqQr_R8XedatQmQ-11" target="2HC28eqQr_R8XedatQmQ-13" edge="1">
          <mxGeometry relative="1" as="geometry">
            <mxPoint x="59.999999999999545" y="203" as="targetPoint" />
          </mxGeometry>
        </mxCell>
        <mxCell id="2HC28eqQr_R8XedatQmQ-13" value="&lt;b&gt;Ticket created and passed to Tier1&lt;/b&gt;" style="rounded=1;whiteSpace=wrap;html=1;arcSize=40;fontColor=#1D3557;fillColor=#A8DADC;strokeColor=#457B9D;labelBackgroundColor=none;" parent="2HC28eqQr_R8XedatQmQ-2" vertex="1">
          <mxGeometry x="70.99999999999955" y="229" width="120" height="40" as="geometry" />
        </mxCell>
        <mxCell id="2HC28eqQr_R8XedatQmQ-95" style="edgeStyle=none;curved=1;rounded=1;orthogonalLoop=1;jettySize=auto;html=1;fontSize=12;startSize=8;endSize=8;labelBackgroundColor=none;strokeColor=#457B9D;fontColor=default;strokeWidth=3;" parent="2HC28eqQr_R8XedatQmQ-2" source="2HC28eqQr_R8XedatQmQ-79" edge="1">
          <mxGeometry relative="1" as="geometry">
            <mxPoint x="133.5" y="1593.4285714285716" as="targetPoint" />
          </mxGeometry>
        </mxCell>
        <mxCell id="2HC28eqQr_R8XedatQmQ-79" value="&lt;b&gt;User gives feedback&lt;/b&gt;" style="rounded=1;whiteSpace=wrap;html=1;arcSize=40;fontColor=#1D3557;fillColor=#A8DADC;strokeColor=#457B9D;labelBackgroundColor=none;" parent="2HC28eqQr_R8XedatQmQ-2" vertex="1">
          <mxGeometry x="55" y="1475" width="157" height="73" as="geometry" />
        </mxCell>
        <mxCell id="2HC28eqQr_R8XedatQmQ-3" value="TIER1" style="swimlane;startSize=20;html=1;rounded=1;labelBackgroundColor=none;fillColor=#A8DADC;strokeColor=#457B9D;fontColor=#1D3557;fontStyle=0" parent="2HC28eqQr_R8XedatQmQ-1" vertex="1">
          <mxGeometry x="273" y="20" width="364" height="1667" as="geometry" />
        </mxCell>
        <mxCell id="2HC28eqQr_R8XedatQmQ-17" value="&lt;b&gt;Evaluate Ticket&lt;/b&gt;" style="rounded=1;whiteSpace=wrap;html=1;arcSize=40;fontColor=#1D3557;fillColor=#A8DADC;strokeColor=#457B9D;labelBackgroundColor=none;" parent="2HC28eqQr_R8XedatQmQ-3" vertex="1">
          <mxGeometry x="47" y="50" width="155" height="59" as="geometry" />
        </mxCell>
        <mxCell id="2HC28eqQr_R8XedatQmQ-18" value="" style="edgeStyle=orthogonalEdgeStyle;html=1;verticalAlign=bottom;endArrow=open;endSize=8;strokeColor=#457B9D;rounded=1;fontSize=12;curved=1;exitX=0.5;exitY=1;exitDx=0;exitDy=0;labelBackgroundColor=none;fontColor=default;strokeWidth=3;" parent="2HC28eqQr_R8XedatQmQ-3" source="2HC28eqQr_R8XedatQmQ-17" edge="1">
          <mxGeometry relative="1" as="geometry">
            <mxPoint x="84.99999999999955" y="199" as="targetPoint" />
            <Array as="points">
              <mxPoint x="107" y="154" />
              <mxPoint x="85" y="154" />
            </Array>
          </mxGeometry>
        </mxCell>
        <mxCell id="2HC28eqQr_R8XedatQmQ-19" value="&lt;b&gt;Priority is Low or Medium or High or Critical&lt;/b&gt;" style="rhombus;whiteSpace=wrap;html=1;fontColor=#1D3557;fillColor=#A8DADC;strokeColor=#457B9D;rounded=1;labelBackgroundColor=none;" parent="2HC28eqQr_R8XedatQmQ-3" vertex="1">
          <mxGeometry y="202" width="173" height="83" as="geometry" />
        </mxCell>
        <mxCell id="2HC28eqQr_R8XedatQmQ-20" value="no" style="edgeStyle=orthogonalEdgeStyle;html=1;align=left;verticalAlign=bottom;endArrow=open;endSize=8;strokeColor=#457B9D;rounded=1;fontSize=12;curved=1;labelBackgroundColor=none;fontColor=default;exitX=0.941;exitY=0.486;exitDx=0;exitDy=0;exitPerimeter=0;strokeWidth=3;" parent="2HC28eqQr_R8XedatQmQ-3" source="2HC28eqQr_R8XedatQmQ-19" edge="1">
          <mxGeometry x="-1" relative="1" as="geometry">
            <mxPoint x="237.99999999999955" y="244" as="targetPoint" />
          </mxGeometry>
        </mxCell>
        <mxCell id="2HC28eqQr_R8XedatQmQ-21" value="yes" style="edgeStyle=orthogonalEdgeStyle;html=1;align=left;verticalAlign=top;endArrow=open;endSize=8;strokeColor=#457B9D;rounded=1;fontSize=12;curved=1;labelBackgroundColor=none;fontColor=default;strokeWidth=3;" parent="2HC28eqQr_R8XedatQmQ-3" source="2HC28eqQr_R8XedatQmQ-19" edge="1">
          <mxGeometry x="-1" relative="1" as="geometry">
            <mxPoint x="67.99999999999955" y="358" as="targetPoint" />
          </mxGeometry>
        </mxCell>
        <mxCell id="2HC28eqQr_R8XedatQmQ-22" value="On the basis&amp;nbsp;&lt;div&gt;of priority&lt;/div&gt;" style="text;html=1;align=center;verticalAlign=middle;resizable=0;points=[];autosize=1;strokeColor=none;fillColor=none;fontSize=16;rounded=1;labelBackgroundColor=none;fontColor=#1D3557;" parent="2HC28eqQr_R8XedatQmQ-3" vertex="1">
          <mxGeometry x="122.99999999999955" y="131" width="112" height="50" as="geometry" />
        </mxCell>
        <mxCell id="2HC28eqQr_R8XedatQmQ-23" value="&lt;b&gt;Handle Ticket&lt;/b&gt;" style="rounded=1;whiteSpace=wrap;html=1;arcSize=40;fontColor=#1D3557;fillColor=#A8DADC;strokeColor=#457B9D;labelBackgroundColor=none;" parent="2HC28eqQr_R8XedatQmQ-3" vertex="1">
          <mxGeometry x="18" y="359" width="156" height="56" as="geometry" />
        </mxCell>
        <mxCell id="2HC28eqQr_R8XedatQmQ-24" value="" style="edgeStyle=orthogonalEdgeStyle;html=1;verticalAlign=bottom;endArrow=open;endSize=8;strokeColor=#457B9D;rounded=1;fontSize=12;curved=1;labelBackgroundColor=none;fontColor=default;strokeWidth=3;" parent="2HC28eqQr_R8XedatQmQ-3" source="2HC28eqQr_R8XedatQmQ-23" edge="1">
          <mxGeometry relative="1" as="geometry">
            <mxPoint x="95.99999999999955" y="481" as="targetPoint" />
            <Array as="points">
              <mxPoint x="96" y="459" />
            </Array>
          </mxGeometry>
        </mxCell>
        <mxCell id="2HC28eqQr_R8XedatQmQ-25" value="&lt;b&gt;Condition&lt;/b&gt;" style="rhombus;whiteSpace=wrap;html=1;fontColor=#1D3557;fillColor=#A8DADC;strokeColor=#457B9D;rounded=1;labelBackgroundColor=none;" parent="2HC28eqQr_R8XedatQmQ-3" vertex="1">
          <mxGeometry x="55.999999999999545" y="483" width="80" height="40" as="geometry" />
        </mxCell>
        <mxCell id="2HC28eqQr_R8XedatQmQ-26" value="no" style="edgeStyle=orthogonalEdgeStyle;html=1;align=left;verticalAlign=bottom;endArrow=open;endSize=8;strokeColor=#457B9D;rounded=1;fontSize=12;curved=1;labelBackgroundColor=none;fontColor=default;strokeWidth=3;" parent="2HC28eqQr_R8XedatQmQ-3" source="2HC28eqQr_R8XedatQmQ-25" edge="1">
          <mxGeometry x="-1" relative="1" as="geometry">
            <mxPoint x="383.99999999999955" y="503" as="targetPoint" />
          </mxGeometry>
        </mxCell>
        <mxCell id="2HC28eqQr_R8XedatQmQ-27" value="yes" style="edgeStyle=orthogonalEdgeStyle;html=1;align=left;verticalAlign=top;endArrow=open;endSize=8;strokeColor=#457B9D;rounded=1;fontSize=12;curved=1;labelBackgroundColor=none;fontColor=default;strokeWidth=3;" parent="2HC28eqQr_R8XedatQmQ-3" source="2HC28eqQr_R8XedatQmQ-25" edge="1">
          <mxGeometry x="-1" relative="1" as="geometry">
            <mxPoint x="95.99999999999955" y="583" as="targetPoint" />
          </mxGeometry>
        </mxCell>
        <mxCell id="2HC28eqQr_R8XedatQmQ-28" value="&lt;b&gt;Check whether Tier1&amp;nbsp;&lt;/b&gt;&lt;div&gt;&lt;b&gt;can handle ticket or not&lt;/b&gt;&lt;/div&gt;" style="text;html=1;align=center;verticalAlign=middle;resizable=0;points=[];autosize=1;strokeColor=none;fillColor=none;fontSize=16;rounded=1;labelBackgroundColor=none;fontColor=#1D3557;" parent="2HC28eqQr_R8XedatQmQ-3" vertex="1">
          <mxGeometry x="117" y="430" width="198" height="50" as="geometry" />
        </mxCell>
        <mxCell id="2HC28eqQr_R8XedatQmQ-29" value="Ticket State is now In Progress" style="rounded=1;whiteSpace=wrap;html=1;arcSize=40;fontColor=#1D3557;fillColor=#A8DADC;strokeColor=#457B9D;labelBackgroundColor=none;fontStyle=1" parent="2HC28eqQr_R8XedatQmQ-3" vertex="1">
          <mxGeometry x="43" y="586" width="172" height="48" as="geometry" />
        </mxCell>
        <mxCell id="2HC28eqQr_R8XedatQmQ-30" value="" style="edgeStyle=orthogonalEdgeStyle;html=1;verticalAlign=bottom;endArrow=open;endSize=8;strokeColor=#457B9D;rounded=1;fontSize=12;curved=1;labelBackgroundColor=none;fontColor=default;strokeWidth=3;" parent="2HC28eqQr_R8XedatQmQ-3" source="2HC28eqQr_R8XedatQmQ-29" edge="1">
          <mxGeometry relative="1" as="geometry">
            <mxPoint x="129" y="691" as="targetPoint" />
          </mxGeometry>
        </mxCell>
        <mxCell id="2HC28eqQr_R8XedatQmQ-52" style="edgeStyle=none;curved=1;rounded=1;orthogonalLoop=1;jettySize=auto;html=1;entryX=0.5;entryY=0;entryDx=0;entryDy=0;fontSize=12;startSize=8;endSize=8;labelBackgroundColor=none;strokeColor=#457B9D;fontColor=default;strokeWidth=3;" parent="2HC28eqQr_R8XedatQmQ-3" source="2HC28eqQr_R8XedatQmQ-31" target="2HC28eqQr_R8XedatQmQ-50" edge="1">
          <mxGeometry relative="1" as="geometry" />
        </mxCell>
        <mxCell id="2HC28eqQr_R8XedatQmQ-31" value="&lt;b&gt;Resolved State&amp;nbsp;&lt;/b&gt;" style="rounded=1;whiteSpace=wrap;html=1;arcSize=40;fontColor=#1D3557;fillColor=#A8DADC;strokeColor=#457B9D;labelBackgroundColor=none;" parent="2HC28eqQr_R8XedatQmQ-3" vertex="1">
          <mxGeometry x="47" y="689" width="164" height="58" as="geometry" />
        </mxCell>
        <mxCell id="2HC28eqQr_R8XedatQmQ-50" value="&lt;b&gt;Ticket&#39;s Closed state achieved&lt;/b&gt;" style="rounded=1;whiteSpace=wrap;html=1;arcSize=40;fontColor=#1D3557;fillColor=#A8DADC;strokeColor=#457B9D;labelBackgroundColor=none;" parent="2HC28eqQr_R8XedatQmQ-3" vertex="1">
          <mxGeometry x="27" y="826" width="208" height="109" as="geometry" />
        </mxCell>
        <mxCell id="2HC28eqQr_R8XedatQmQ-71" value="" style="endArrow=none;html=1;rounded=1;fontSize=12;startSize=8;endSize=8;curved=1;labelBackgroundColor=none;strokeColor=#457B9D;fontColor=default;strokeWidth=3;" parent="2HC28eqQr_R8XedatQmQ-3" edge="1">
          <mxGeometry width="50" height="50" relative="1" as="geometry">
            <mxPoint x="128.17000000000002" y="939" as="sourcePoint" />
            <mxPoint x="123.99999999999955" y="1397" as="targetPoint" />
          </mxGeometry>
        </mxCell>
        <mxCell id="2HC28eqQr_R8XedatQmQ-96" value="" style="endArrow=none;html=1;rounded=1;fontSize=12;startSize=8;endSize=8;curved=1;labelBackgroundColor=none;strokeColor=#457B9D;fontColor=default;strokeWidth=3;" parent="2HC28eqQr_R8XedatQmQ-3" edge="1">
          <mxGeometry width="50" height="50" relative="1" as="geometry">
            <mxPoint x="122.99999999999955" y="1399" as="sourcePoint" />
            <mxPoint x="463.99999999999955" y="1404" as="targetPoint" />
          </mxGeometry>
        </mxCell>
        <mxCell id="2HC28eqQr_R8XedatQmQ-98" value="&lt;b&gt;Cannot resolve ticket&lt;/b&gt;" style="rounded=1;whiteSpace=wrap;html=1;arcSize=40;fontColor=#1D3557;fillColor=#A8DADC;strokeColor=#457B9D;labelBackgroundColor=none;" parent="2HC28eqQr_R8XedatQmQ-3" vertex="1">
          <mxGeometry x="239" y="217" width="125" height="52" as="geometry" />
        </mxCell>
        <mxCell id="2HC28eqQr_R8XedatQmQ-4" value="TIER2" style="swimlane;startSize=20;html=1;rounded=1;labelBackgroundColor=none;fillColor=#A8DADC;strokeColor=#457B9D;fontColor=#1D3557;" parent="2HC28eqQr_R8XedatQmQ-1" vertex="1">
          <mxGeometry x="637" y="20" width="305" height="1667" as="geometry" />
        </mxCell>
        <mxCell id="2HC28eqQr_R8XedatQmQ-33" value="&lt;b&gt;Control passed to Tier2&lt;/b&gt;" style="rounded=1;whiteSpace=wrap;html=1;arcSize=40;fontColor=#1D3557;fillColor=#A8DADC;strokeColor=#457B9D;labelBackgroundColor=none;" parent="2HC28eqQr_R8XedatQmQ-4" vertex="1">
          <mxGeometry x="20.5" y="475" width="173" height="61" as="geometry" />
        </mxCell>
        <mxCell id="2HC28eqQr_R8XedatQmQ-34" value="" style="edgeStyle=orthogonalEdgeStyle;html=1;verticalAlign=bottom;endArrow=open;endSize=8;strokeColor=#457B9D;rounded=1;fontSize=12;curved=1;labelBackgroundColor=none;fontColor=default;strokeWidth=3;" parent="2HC28eqQr_R8XedatQmQ-4" source="2HC28eqQr_R8XedatQmQ-33" edge="1">
          <mxGeometry relative="1" as="geometry">
            <mxPoint x="104" y="590" as="targetPoint" />
          </mxGeometry>
        </mxCell>
        <mxCell id="2HC28eqQr_R8XedatQmQ-35" style="edgeStyle=none;curved=1;rounded=1;orthogonalLoop=1;jettySize=auto;html=1;exitX=0.5;exitY=1;exitDx=0;exitDy=0;fontSize=12;startSize=8;endSize=8;labelBackgroundColor=none;strokeColor=#457B9D;fontColor=default;" parent="2HC28eqQr_R8XedatQmQ-4" source="2HC28eqQr_R8XedatQmQ-33" target="2HC28eqQr_R8XedatQmQ-33" edge="1">
          <mxGeometry relative="1" as="geometry" />
        </mxCell>
        <mxCell id="2HC28eqQr_R8XedatQmQ-39" value="&lt;b&gt;Handle Ticket&lt;/b&gt;" style="rounded=1;whiteSpace=wrap;html=1;arcSize=40;fontColor=#1D3557;fillColor=#A8DADC;strokeColor=#457B9D;labelBackgroundColor=none;" parent="2HC28eqQr_R8XedatQmQ-4" vertex="1">
          <mxGeometry x="23" y="593" width="168" height="60" as="geometry" />
        </mxCell>
        <mxCell id="2HC28eqQr_R8XedatQmQ-40" value="" style="edgeStyle=orthogonalEdgeStyle;html=1;verticalAlign=bottom;endArrow=open;endSize=8;strokeColor=#457B9D;rounded=1;fontSize=12;curved=1;labelBackgroundColor=none;fontColor=default;strokeWidth=3;" parent="2HC28eqQr_R8XedatQmQ-4" source="2HC28eqQr_R8XedatQmQ-39" edge="1">
          <mxGeometry relative="1" as="geometry">
            <mxPoint x="107" y="731" as="targetPoint" />
            <Array as="points">
              <mxPoint x="107" y="724" />
            </Array>
          </mxGeometry>
        </mxCell>
        <mxCell id="2HC28eqQr_R8XedatQmQ-41" value="&lt;b&gt;Condition&lt;/b&gt;" style="rhombus;whiteSpace=wrap;html=1;fontColor=#1D3557;fillColor=#A8DADC;strokeColor=#457B9D;rounded=1;labelBackgroundColor=none;" parent="2HC28eqQr_R8XedatQmQ-4" vertex="1">
          <mxGeometry x="54" y="733" width="111" height="64" as="geometry" />
        </mxCell>
        <mxCell id="2HC28eqQr_R8XedatQmQ-43" value="yes" style="edgeStyle=orthogonalEdgeStyle;html=1;align=left;verticalAlign=top;endArrow=open;endSize=8;strokeColor=#457B9D;rounded=1;fontSize=12;curved=1;labelBackgroundColor=none;fontColor=default;strokeWidth=3;" parent="2HC28eqQr_R8XedatQmQ-4" source="2HC28eqQr_R8XedatQmQ-41" edge="1">
          <mxGeometry x="-1" relative="1" as="geometry">
            <mxPoint x="110" y="884" as="targetPoint" />
            <Array as="points">
              <mxPoint x="110" y="822" />
              <mxPoint x="110" y="822" />
            </Array>
            <mxPoint as="offset" />
          </mxGeometry>
        </mxCell>
        <mxCell id="2HC28eqQr_R8XedatQmQ-44" value="&lt;b&gt;Check whether Tier2&amp;nbsp;&lt;/b&gt;&lt;div&gt;&lt;b&gt;can handle ticket or not&lt;/b&gt;&lt;/div&gt;" style="text;html=1;align=center;verticalAlign=middle;resizable=0;points=[];autosize=1;strokeColor=none;fillColor=none;fontSize=16;rounded=1;labelBackgroundColor=none;fontColor=#1D3557;" parent="2HC28eqQr_R8XedatQmQ-4" vertex="1">
          <mxGeometry x="107" y="818" width="198" height="50" as="geometry" />
        </mxCell>
        <mxCell id="2HC28eqQr_R8XedatQmQ-45" value="&lt;b&gt;Ticket State is now In Progress&lt;/b&gt;" style="rounded=1;whiteSpace=wrap;html=1;arcSize=40;fontColor=#1D3557;fillColor=#A8DADC;strokeColor=#457B9D;labelBackgroundColor=none;" parent="2HC28eqQr_R8XedatQmQ-4" vertex="1">
          <mxGeometry x="33" y="885" width="172" height="48" as="geometry" />
        </mxCell>
        <mxCell id="2HC28eqQr_R8XedatQmQ-47" value="&lt;b&gt;Resolved State&amp;nbsp;&lt;/b&gt;" style="rounded=1;whiteSpace=wrap;html=1;arcSize=40;fontColor=#1D3557;fillColor=#A8DADC;strokeColor=#457B9D;labelBackgroundColor=none;" parent="2HC28eqQr_R8XedatQmQ-4" vertex="1">
          <mxGeometry x="41" y="986" width="164" height="58" as="geometry" />
        </mxCell>
        <mxCell id="2HC28eqQr_R8XedatQmQ-61" value="&lt;b&gt;Ticket&#39;s Closed state achieved&lt;/b&gt;" style="rounded=1;whiteSpace=wrap;html=1;arcSize=40;fontColor=#1D3557;fillColor=#A8DADC;strokeColor=#457B9D;labelBackgroundColor=none;" parent="2HC28eqQr_R8XedatQmQ-4" vertex="1">
          <mxGeometry x="30.5" y="1116" width="185" height="90" as="geometry" />
        </mxCell>
        <mxCell id="2HC28eqQr_R8XedatQmQ-62" value="" style="edgeStyle=orthogonalEdgeStyle;html=1;verticalAlign=bottom;endArrow=open;endSize=8;strokeColor=#457B9D;rounded=1;fontSize=12;curved=1;entryX=0.5;entryY=0;entryDx=0;entryDy=0;labelBackgroundColor=none;fontColor=default;strokeWidth=3;" parent="2HC28eqQr_R8XedatQmQ-4" source="2HC28eqQr_R8XedatQmQ-47" target="2HC28eqQr_R8XedatQmQ-61" edge="1">
          <mxGeometry relative="1" as="geometry">
            <mxPoint x="126" y="1079" as="targetPoint" />
            <mxPoint x="126" y="1056" as="sourcePoint" />
          </mxGeometry>
        </mxCell>
        <mxCell id="2HC28eqQr_R8XedatQmQ-83" value="" style="endArrow=none;html=1;rounded=1;fontSize=12;startSize=8;endSize=8;curved=1;labelBackgroundColor=none;strokeColor=#457B9D;fontColor=default;strokeWidth=3;" parent="2HC28eqQr_R8XedatQmQ-4" edge="1">
          <mxGeometry width="50" height="50" relative="1" as="geometry">
            <mxPoint x="-502.00000000000045" y="1591" as="sourcePoint" />
            <mxPoint x="932.9999999999995" y="1591" as="targetPoint" />
          </mxGeometry>
        </mxCell>
        <mxCell id="2HC28eqQr_R8XedatQmQ-5" value="TIER3" style="swimlane;startSize=20;html=1;rounded=1;labelBackgroundColor=none;fillColor=#A8DADC;strokeColor=#457B9D;fontColor=#1D3557;" parent="2HC28eqQr_R8XedatQmQ-1" vertex="1">
          <mxGeometry x="942" y="20" width="361" height="1667" as="geometry" />
        </mxCell>
        <mxCell id="2HC28eqQr_R8XedatQmQ-48" value="&lt;b&gt;Control passed to Tier 3&lt;/b&gt;" style="rounded=1;whiteSpace=wrap;html=1;arcSize=40;fontColor=#1D3557;fillColor=#A8DADC;strokeColor=#457B9D;labelBackgroundColor=none;" parent="2HC28eqQr_R8XedatQmQ-5" vertex="1">
          <mxGeometry x="20" y="725" width="148" height="66" as="geometry" />
        </mxCell>
        <mxCell id="2HC28eqQr_R8XedatQmQ-49" value="" style="edgeStyle=orthogonalEdgeStyle;html=1;verticalAlign=bottom;endArrow=open;endSize=8;strokeColor=#457B9D;rounded=1;fontSize=12;curved=1;entryX=0.5;entryY=0;entryDx=0;entryDy=0;labelBackgroundColor=none;fontColor=default;strokeWidth=3;" parent="2HC28eqQr_R8XedatQmQ-5" source="2HC28eqQr_R8XedatQmQ-48" target="2HC28eqQr_R8XedatQmQ-53" edge="1">
          <mxGeometry relative="1" as="geometry">
            <mxPoint x="80" y="825" as="targetPoint" />
          </mxGeometry>
        </mxCell>
        <mxCell id="2HC28eqQr_R8XedatQmQ-53" value="&lt;b&gt;Condition&lt;/b&gt;" style="rhombus;whiteSpace=wrap;html=1;fontColor=#1D3557;fillColor=#A8DADC;strokeColor=#457B9D;rounded=1;labelBackgroundColor=none;" parent="2HC28eqQr_R8XedatQmQ-5" vertex="1">
          <mxGeometry x="38" y="846" width="80" height="40" as="geometry" />
        </mxCell>
        <mxCell id="2HC28eqQr_R8XedatQmQ-54" value="no" style="edgeStyle=orthogonalEdgeStyle;html=1;align=left;verticalAlign=bottom;endArrow=open;endSize=8;strokeColor=#457B9D;rounded=1;fontSize=12;curved=1;labelBackgroundColor=none;fontColor=default;strokeWidth=3;" parent="2HC28eqQr_R8XedatQmQ-5" source="2HC28eqQr_R8XedatQmQ-53" edge="1">
          <mxGeometry x="-1" relative="1" as="geometry">
            <mxPoint x="218" y="866" as="targetPoint" />
          </mxGeometry>
        </mxCell>
        <mxCell id="2HC28eqQr_R8XedatQmQ-55" value="yes" style="edgeStyle=orthogonalEdgeStyle;html=1;align=left;verticalAlign=top;endArrow=open;endSize=8;strokeColor=#457B9D;rounded=1;fontSize=12;curved=1;labelBackgroundColor=none;fontColor=default;strokeWidth=3;" parent="2HC28eqQr_R8XedatQmQ-5" source="2HC28eqQr_R8XedatQmQ-53" edge="1">
          <mxGeometry x="-1" relative="1" as="geometry">
            <mxPoint x="78" y="968" as="targetPoint" />
          </mxGeometry>
        </mxCell>
        <mxCell id="2HC28eqQr_R8XedatQmQ-56" value="&lt;b&gt;Check whether Tier3&amp;nbsp;&lt;/b&gt;&lt;div&gt;&lt;b&gt;can handle ticket or not&lt;/b&gt;&lt;/div&gt;" style="text;html=1;align=center;verticalAlign=middle;resizable=0;points=[];autosize=1;strokeColor=none;fillColor=none;fontSize=16;rounded=1;labelBackgroundColor=none;fontColor=#1D3557;" parent="2HC28eqQr_R8XedatQmQ-5" vertex="1">
          <mxGeometry x="80" y="908" width="198" height="50" as="geometry" />
        </mxCell>
        <mxCell id="2HC28eqQr_R8XedatQmQ-57" value="&lt;b&gt;Ticket State is now In Progress&lt;/b&gt;" style="rounded=1;whiteSpace=wrap;html=1;arcSize=40;fontColor=#1D3557;fillColor=#A8DADC;strokeColor=#457B9D;labelBackgroundColor=none;" parent="2HC28eqQr_R8XedatQmQ-5" vertex="1">
          <mxGeometry x="7" y="968" width="163" height="67" as="geometry" />
        </mxCell>
        <mxCell id="2HC28eqQr_R8XedatQmQ-58" value="" style="edgeStyle=orthogonalEdgeStyle;html=1;verticalAlign=bottom;endArrow=open;endSize=8;strokeColor=#457B9D;rounded=1;fontSize=12;curved=1;labelBackgroundColor=none;fontColor=default;strokeWidth=3;" parent="2HC28eqQr_R8XedatQmQ-5" source="2HC28eqQr_R8XedatQmQ-57" edge="1">
          <mxGeometry relative="1" as="geometry">
            <mxPoint x="89" y="1092" as="targetPoint" />
          </mxGeometry>
        </mxCell>
        <mxCell id="2HC28eqQr_R8XedatQmQ-60" value="&lt;b&gt;Resolved State&amp;nbsp;&lt;/b&gt;" style="rounded=1;whiteSpace=wrap;html=1;arcSize=40;fontColor=#1D3557;fillColor=#A8DADC;strokeColor=#457B9D;labelBackgroundColor=none;" parent="2HC28eqQr_R8XedatQmQ-5" vertex="1">
          <mxGeometry x="12" y="1094" width="164" height="58" as="geometry" />
        </mxCell>
        <mxCell id="2HC28eqQr_R8XedatQmQ-65" value="&lt;b&gt;Ticket&#39;s Closed state achieved&lt;/b&gt;" style="rounded=1;whiteSpace=wrap;html=1;arcSize=40;fontColor=#1D3557;fillColor=#A8DADC;strokeColor=#457B9D;labelBackgroundColor=none;" parent="2HC28eqQr_R8XedatQmQ-5" vertex="1">
          <mxGeometry x="12" y="1222" width="185" height="90" as="geometry" />
        </mxCell>
        <mxCell id="2HC28eqQr_R8XedatQmQ-67" style="edgeStyle=none;curved=1;rounded=1;orthogonalLoop=1;jettySize=auto;html=1;fontSize=12;startSize=8;endSize=8;labelBackgroundColor=none;strokeColor=#457B9D;fontColor=default;strokeWidth=3;" parent="2HC28eqQr_R8XedatQmQ-5" source="2HC28eqQr_R8XedatQmQ-60" edge="1">
          <mxGeometry relative="1" as="geometry">
            <mxPoint x="91" y="1222" as="targetPoint" />
          </mxGeometry>
        </mxCell>
        <mxCell id="2HC28eqQr_R8XedatQmQ-90" style="edgeStyle=none;curved=1;rounded=1;orthogonalLoop=1;jettySize=auto;html=1;fontSize=12;startSize=8;endSize=8;labelBackgroundColor=none;strokeColor=#457B9D;fontColor=default;strokeWidth=3;" parent="2HC28eqQr_R8XedatQmQ-5" source="2HC28eqQr_R8XedatQmQ-68" edge="1">
          <mxGeometry relative="1" as="geometry">
            <mxPoint x="718.9524972098211" y="866" as="targetPoint" />
          </mxGeometry>
        </mxCell>
        <mxCell id="2HC28eqQr_R8XedatQmQ-68" value="&lt;b&gt;Cannot resolve Ticket&lt;/b&gt;" style="rounded=1;whiteSpace=wrap;html=1;arcSize=40;fontColor=#1D3557;fillColor=#A8DADC;strokeColor=#457B9D;labelBackgroundColor=none;" parent="2HC28eqQr_R8XedatQmQ-5" vertex="1">
          <mxGeometry x="217" y="842" width="144" height="48" as="geometry" />
        </mxCell>
        <mxCell id="2HC28eqQr_R8XedatQmQ-76" value="" style="endArrow=classic;html=1;rounded=1;fontSize=12;startSize=8;endSize=8;curved=1;entryX=1;entryY=0.5;entryDx=0;entryDy=0;labelBackgroundColor=none;strokeColor=#457B9D;fontColor=default;strokeWidth=3;" parent="2HC28eqQr_R8XedatQmQ-5" target="2HC28eqQr_R8XedatQmQ-79" edge="1">
          <mxGeometry width="50" height="50" relative="1" as="geometry">
            <mxPoint x="451.99999999999955" y="1517" as="sourcePoint" />
            <mxPoint x="-680" y="1359" as="targetPoint" />
          </mxGeometry>
        </mxCell>
        <mxCell id="2HC28eqQr_R8XedatQmQ-6" value="FEEDBACK" style="swimlane;startSize=20;html=1;rounded=1;labelBackgroundColor=none;fillColor=#A8DADC;strokeColor=#457B9D;fontColor=#1D3557;" parent="2HC28eqQr_R8XedatQmQ-1" vertex="1">
          <mxGeometry x="1303" y="20" width="189" height="1667" as="geometry" />
        </mxCell>
        <mxCell id="2HC28eqQr_R8XedatQmQ-85" style="edgeStyle=none;curved=1;rounded=1;orthogonalLoop=1;jettySize=auto;html=1;fontSize=12;startSize=8;endSize=8;labelBackgroundColor=none;strokeColor=#457B9D;fontColor=default;strokeWidth=3;" parent="2HC28eqQr_R8XedatQmQ-6" source="2HC28eqQr_R8XedatQmQ-74" edge="1">
          <mxGeometry relative="1" as="geometry">
            <mxPoint x="89.99999999999955" y="1519" as="targetPoint" />
          </mxGeometry>
        </mxCell>
        <mxCell id="2HC28eqQr_R8XedatQmQ-74" value="&lt;b&gt;Request User feedback&lt;/b&gt;" style="rounded=1;whiteSpace=wrap;html=1;arcSize=40;fontColor=#1D3557;fillColor=#A8DADC;strokeColor=#457B9D;labelBackgroundColor=none;" parent="2HC28eqQr_R8XedatQmQ-6" vertex="1">
          <mxGeometry x="17" y="1253" width="146" height="91" as="geometry" />
        </mxCell>
        <mxCell id="2HC28eqQr_R8XedatQmQ-7" value="FEEDBACK ANAYSIS" style="swimlane;startSize=20;html=1;rounded=1;labelBackgroundColor=none;fillColor=#A8DADC;strokeColor=#457B9D;fontColor=#1D3557;" parent="2HC28eqQr_R8XedatQmQ-1" vertex="1">
          <mxGeometry x="1492" y="20" width="147" height="1667" as="geometry" />
        </mxCell>
        <mxCell id="2HC28eqQr_R8XedatQmQ-94" style="edgeStyle=none;curved=1;rounded=1;orthogonalLoop=1;jettySize=auto;html=1;fontSize=12;startSize=8;endSize=8;labelBackgroundColor=none;strokeColor=#457B9D;fontColor=default;strokeWidth=3;" parent="2HC28eqQr_R8XedatQmQ-7" source="2HC28eqQr_R8XedatQmQ-81" edge="1">
          <mxGeometry relative="1" as="geometry">
            <mxPoint x="84" y="1592.476205008371" as="targetPoint" />
          </mxGeometry>
        </mxCell>
        <mxCell id="2HC28eqQr_R8XedatQmQ-81" value="&lt;b&gt;Feedback is Analyzed on the basis of positive and negative feedback&lt;/b&gt;" style="rounded=1;whiteSpace=wrap;html=1;arcSize=40;fontColor=#1D3557;fillColor=#A8DADC;strokeColor=#457B9D;labelBackgroundColor=none;" parent="2HC28eqQr_R8XedatQmQ-7" vertex="1">
          <mxGeometry x="16" y="1447" width="136" height="76" as="geometry" />
        </mxCell>
        <mxCell id="2HC28eqQr_R8XedatQmQ-8" value="NOTIFY USER" style="swimlane;startSize=20;html=1;rounded=1;labelBackgroundColor=none;fillColor=#A8DADC;strokeColor=#457B9D;fontColor=#1D3557;" parent="2HC28eqQr_R8XedatQmQ-1" vertex="1">
          <mxGeometry x="1639" y="20" width="229" height="1667" as="geometry" />
        </mxCell>
        <mxCell id="2HC28eqQr_R8XedatQmQ-86" value="&lt;b&gt;Notify user that ticket is Unresolved&lt;/b&gt;" style="rounded=1;whiteSpace=wrap;html=1;arcSize=40;fontColor=#1D3557;fillColor=#A8DADC;strokeColor=#457B9D;labelBackgroundColor=none;" parent="2HC28eqQr_R8XedatQmQ-8" vertex="1">
          <mxGeometry x="24" y="833" width="157" height="73" as="geometry" />
        </mxCell>
        <mxCell id="2HC28eqQr_R8XedatQmQ-88" value="&lt;b&gt;Notify user that ticket is resolved&lt;/b&gt;" style="rounded=1;whiteSpace=wrap;html=1;arcSize=40;fontColor=#1D3557;fillColor=#A8DADC;strokeColor=#457B9D;labelBackgroundColor=none;" parent="2HC28eqQr_R8XedatQmQ-8" vertex="1">
          <mxGeometry x="26" y="1264" width="158" height="80" as="geometry" />
        </mxCell>
        <mxCell id="2HC28eqQr_R8XedatQmQ-42" value="&lt;b&gt;no&lt;/b&gt;" style="edgeStyle=orthogonalEdgeStyle;html=1;align=left;verticalAlign=bottom;endArrow=open;endSize=8;strokeColor=#457B9D;rounded=1;fontSize=12;curved=1;labelBackgroundColor=none;fontColor=default;" parent="2HC28eqQr_R8XedatQmQ-1" source="2HC28eqQr_R8XedatQmQ-41" edge="1">
          <mxGeometry x="-1" relative="1" as="geometry">
            <mxPoint x="947.9999999999995" y="778" as="targetPoint" />
            <Array as="points">
              <mxPoint x="845" y="785" />
              <mxPoint x="845" y="778" />
            </Array>
          </mxGeometry>
        </mxCell>
        <mxCell id="2HC28eqQr_R8XedatQmQ-46" value="" style="edgeStyle=orthogonalEdgeStyle;html=1;verticalAlign=bottom;endArrow=open;endSize=8;strokeColor=#457B9D;rounded=1;fontSize=12;curved=1;exitX=0.5;exitY=1;exitDx=0;exitDy=0;labelBackgroundColor=none;fontColor=default;strokeWidth=3;" parent="1" source="2HC28eqQr_R8XedatQmQ-45" edge="1">
          <mxGeometry relative="1" as="geometry">
            <mxPoint x="743" y="966" as="targetPoint" />
            <mxPoint x="743" y="957" as="sourcePoint" />
          </mxGeometry>
        </mxCell>
        <mxCell id="2HC28eqQr_R8XedatQmQ-72" value="" style="endArrow=none;html=1;rounded=1;fontSize=12;startSize=8;endSize=8;curved=1;labelBackgroundColor=none;strokeColor=#457B9D;fontColor=default;strokeWidth=3;" parent="1" edge="1">
          <mxGeometry width="50" height="50" relative="1" as="geometry">
            <mxPoint x="751" y="1188" as="sourcePoint" />
            <mxPoint x="748" y="1386" as="targetPoint" />
          </mxGeometry>
        </mxCell>
        <mxCell id="2HC28eqQr_R8XedatQmQ-73" value="" style="endArrow=none;html=1;rounded=1;fontSize=12;startSize=8;endSize=8;curved=1;labelBackgroundColor=none;strokeColor=#457B9D;fontColor=default;strokeWidth=3;" parent="1" edge="1">
          <mxGeometry width="50" height="50" relative="1" as="geometry">
            <mxPoint x="1020" y="1294" as="sourcePoint" />
            <mxPoint x="1020" y="1391" as="targetPoint" />
          </mxGeometry>
        </mxCell>
        <mxCell id="2HC28eqQr_R8XedatQmQ-91" value="" style="endArrow=classic;html=1;rounded=1;fontSize=12;startSize=8;endSize=8;curved=1;labelBackgroundColor=none;strokeColor=#457B9D;fontColor=default;strokeWidth=3;" parent="1" edge="1">
          <mxGeometry width="50" height="50" relative="1" as="geometry">
            <mxPoint x="749" y="1389" as="sourcePoint" />
            <mxPoint x="1708" y="1392" as="targetPoint" />
          </mxGeometry>
        </mxCell>
        <mxCell id="2HC28eqQr_R8XedatQmQ-92" value="" style="endArrow=classic;html=1;rounded=1;fontSize=12;startSize=8;endSize=8;curved=1;labelBackgroundColor=none;strokeColor=#457B9D;fontColor=default;strokeWidth=3;" parent="1" edge="1">
          <mxGeometry width="50" height="50" relative="1" as="geometry">
            <mxPoint x="1702" y="1387" as="sourcePoint" />
            <mxPoint x="1702" y="1327" as="targetPoint" />
          </mxGeometry>
        </mxCell>
      </root>
    </mxGraphModel>
  </diagram>
</mxfile>
